<svg width="22" height="21" viewBox="0 0 22 21" fill="none" xmlns="http://www.w3.org/2000/svg">
<mask id="mask0_2_13" style="mask-type:alpha" maskUnits="userSpaceOnUse" x="0" y="0" width="22" height="21">
<rect y="0.5" width="22" height="20.4286" fill="#D9D9D9"/>
</mask>
<g mask="url(#mask0_2_13)">
<path d="M16.225 7.13929C15.9962 7.13929 15.8015 7.06472 15.6409 6.91559C15.4803 6.76646 15.4 6.58567 15.4 6.37321C15.4 6.2595 15.4227 6.16008 15.4682 6.07496C15.5144 5.98984 15.5756 5.91187 15.6519 5.84105C15.8961 5.64289 16.2818 5.46925 16.8091 5.32012L17.6 5.09643C17.5083 5.38039 17.4167 5.65004 17.325 5.9054L17.05 6.50089C16.9583 6.69973 16.8744 6.83456 16.7981 6.90538C16.7218 6.9762 16.6338 7.03306 16.5341 7.07596C16.4351 7.11818 16.3321 7.13929 16.225 7.13929ZM3.85 17.8643C3.39167 17.8643 3.00227 17.7152 2.6818 17.4169C2.3606 17.1193 2.2 16.7577 2.2 16.3321V5.09643C2.2 4.67083 2.3606 4.30925 2.6818 4.01167C3.00227 3.71341 3.39167 3.56429 3.85 3.56429H8.8C9.25833 3.56429 9.64774 3.71341 9.9682 4.01167C10.2894 4.30925 10.45 4.67083 10.45 5.09643V11.8634C10.5725 11.7926 10.7063 11.7534 10.8515 11.7459C10.996 11.7391 11.1371 11.7357 11.275 11.7357C11.9629 11.7357 12.5473 11.9591 13.0284 12.4058C13.5095 12.8525 13.75 13.3952 13.75 14.0339V15.5661C13.75 15.7785 13.8303 15.9593 13.9909 16.1085C14.1515 16.2576 14.3462 16.3321 14.575 16.3321C14.8038 16.3321 14.9985 16.2576 15.1591 16.1085C15.3197 15.9593 15.4 15.7785 15.4 15.5661V10.7143H14.3V9.75619C13.5975 9.45861 13.0552 9.00135 12.6731 8.38441C12.291 7.76678 12.1 7.09639 12.1 6.37321C12.1 5.30957 12.5011 4.40526 13.3034 3.6603C14.1057 2.91534 15.0795 2.54286 16.225 2.54286C17.3705 2.54286 18.3443 2.91534 19.1466 3.6603C19.9489 4.40526 20.35 5.30957 20.35 6.37321C20.35 7.09639 20.1553 7.76304 19.7659 8.37317C19.3765 8.98331 18.8379 9.44431 18.15 9.75619V10.7143H17.05V15.5661C17.05 16.2048 16.8095 16.7475 16.3284 17.1942C15.8473 17.6409 15.2629 17.8643 14.575 17.8643C13.8871 17.8643 13.3027 17.6409 12.8216 17.1942C12.3405 16.7475 12.1 16.2048 12.1 15.5661V14.0339C12.1 13.8215 12.0197 13.6407 11.8591 13.4916C11.6985 13.3424 11.5038 13.2679 11.275 13.2679C11.0462 13.2679 10.8515 13.3424 10.6909 13.4916C10.5303 13.6407 10.45 13.8215 10.45 14.0339V16.3321C10.45 16.7577 10.2894 17.1193 9.9682 17.4169C9.64774 17.7152 9.25833 17.8643 8.8 17.8643H3.85ZM16.225 8.67143C16.9129 8.67143 17.4973 8.44808 17.9784 8.00137C18.4595 7.55467 18.7 7.01195 18.7 6.37321C18.7 5.73448 18.4595 5.19176 17.9784 4.74506C17.4973 4.29835 16.9129 4.075 16.225 4.075C15.5371 4.075 14.9527 4.29835 14.4716 4.74506C13.9905 5.19176 13.75 5.73448 13.75 6.37321C13.75 7.01195 13.9905 7.55467 14.4716 8.00137C14.9527 8.44808 15.5371 8.67143 16.225 8.67143ZM3.85 16.3321H8.8V14.8L7.15 16.3321V14.1616L8.8 12.6295V10.9696L7.15 12.5018V10.3313L8.8 8.79911V7.13929L7.15 8.67143V6.50089L8.6625 5.09643H3.9875L5.5 6.50089V8.67143L3.85 7.13929V8.79911L5.5 10.3313V12.5018L3.85 10.9696V12.6295L5.5 14.1616V16.3321L3.85 14.8V16.3321Z" fill="white"/>
</g>
</svg>
